<svg xmlns="http://www.w3.org/2000/svg" viewBox="0 0 320 320" fill="none">
  <path d="M0 52C41 26 79 22 114 40C148 58 180 88 220 86C257 84 288 54 320 28" stroke="#7b5a48" stroke-opacity=".1" stroke-width="1.5"/>
  <path d="M-8 136C25 119 70 110 110 126C149 141 190 177 233 172C272 168 301 145 328 121" stroke="#7b5a48" stroke-opacity=".1" stroke-width="1.5"/>
  <path d="M-6 224C32 209 72 203 116 215C161 227 198 260 244 256C280 252 306 232 326 214" stroke="#7b5a48" stroke-opacity=".1" stroke-width="1.5"/>
  <path d="M10 304C51 288 88 282 128 294C169 306 205 329 244 320C274 313 298 293 314 276" stroke="#7b5a48" stroke-opacity=".1" stroke-width="1.5"/>
</svg>
